<svg width="36" height="36" viewBox="0 0 36 36" fill="none" xmlns="http://www.w3.org/2000/svg">
<g clip-path="url(#clip0_657_285)">
<rect width="35" height="35" transform="translate(0.5 0.763672)" fill="black"/>
<path d="M32.7369 28.7688C32.2076 29.9916 31.581 31.1172 30.8551 32.152C29.8657 33.5628 29.0555 34.5393 28.4311 35.0816C27.4633 35.9717 26.4263 36.4275 25.3158 36.4534C24.5186 36.4534 23.5572 36.2266 22.4381 35.7664C21.3153 35.3084 20.2835 35.0816 19.3401 35.0816C18.3506 35.0816 17.2894 35.3084 16.1543 35.7664C15.0175 36.2266 14.1017 36.4664 13.4015 36.4902C12.3366 36.5355 11.2752 36.0667 10.2157 35.0816C9.53948 34.4918 8.69367 33.4807 7.68043 32.0483C6.5933 30.5187 5.69953 28.745 4.99934 26.7229C4.24945 24.5387 3.87354 22.4236 3.87354 20.376C3.87354 18.0304 4.38037 16.0074 5.39556 14.3121C6.1934 12.9504 7.25482 11.8762 8.58327 11.0876C9.91172 10.2991 11.3471 9.89723 12.8929 9.87152C13.7387 9.87152 14.8479 10.1332 16.2262 10.6473C17.6007 11.1632 18.4832 11.4249 18.8702 11.4249C19.1594 11.4249 20.1398 11.119 21.8019 10.5091C23.3736 9.94347 24.7001 9.70928 25.7868 9.80153C28.7314 10.0392 30.9437 11.2 32.415 13.2913C29.7814 14.887 28.4787 17.1219 28.5046 19.989C28.5284 22.2223 29.3385 24.0807 30.9308 25.5562C31.6523 26.2411 32.4582 26.7704 33.3548 27.1463C33.1603 27.7102 32.9551 28.2503 32.7369 28.7688ZM25.9834 2.19336C25.9834 3.94376 25.3439 5.57811 24.0692 7.09084C22.531 8.88918 20.6704 9.92834 18.6528 9.76437C18.6271 9.55437 18.6122 9.33336 18.6122 9.10112C18.6122 7.42073 19.3437 5.62239 20.6428 4.15201C21.2914 3.40752 22.1162 2.7885 23.1165 2.29469C24.1146 1.80824 25.0587 1.53923 25.9466 1.49316C25.9726 1.72717 25.9834 1.96118 25.9834 2.19334V2.19336Z" fill="white"/>
</g>
<defs>
<clipPath id="clip0_657_285">
<rect width="35" height="35" fill="white" transform="translate(0.5 0.763672)"/>
</clipPath>
</defs>
</svg>
