<svg width="35" height="36" viewBox="0 0 35 36" fill="none" xmlns="http://www.w3.org/2000/svg">
<g clip-path="url(#clip0_657_272)">
<rect width="35" height="35" transform="translate(0 0.46875)" fill="#1877F2"/>
<path d="M35 17.5757C35 7.85164 27.165 -0.03125 17.5 -0.03125C7.83501 -0.03125 0 7.85164 0 17.5757C0 26.3638 6.3995 33.6479 14.7656 34.9688V22.6652H10.3223V17.5757H14.7656V13.6967C14.7656 9.28393 17.3783 6.84646 21.3756 6.84646C23.2903 6.84646 25.293 7.19035 25.293 7.19035V11.5233H23.0863C20.9123 11.5233 20.2344 12.8805 20.2344 14.2729V17.5757H25.0879L24.312 22.6652H20.2344V34.9688C28.6005 33.6479 35 26.3638 35 17.5757Z" fill="white"/>
</g>
<defs>
<clipPath id="clip0_657_272">
<rect width="35" height="35" fill="white" transform="translate(0 0.46875)"/>
</clipPath>
</defs>
</svg>
