<svg width="36" height="36" viewBox="0 0 36 36" fill="none" xmlns="http://www.w3.org/2000/svg">
<rect width="35" height="35" transform="translate(0.5)" fill="white"/>
<path fill-rule="evenodd" clip-rule="evenodd" d="M35.1963 18.6796C35.1963 17.472 35.0902 16.3109 34.8933 15.1963H19.1963V21.7836H28.166C27.7796 23.9123 26.6054 25.7159 24.8402 26.9234V31.1963H30.2266C33.3781 28.2316 35.1963 23.8659 35.1963 18.6796Z" fill="#4285F4"/>
<path fill-rule="evenodd" clip-rule="evenodd" d="M18.7083 35.1963C23.395 35.1963 27.3243 33.6486 30.1963 31.0089L24.5864 26.6722C23.0321 27.7092 21.0437 28.322 18.7083 28.322C14.1872 28.322 10.3605 25.2816 8.99553 21.1963H3.19629V25.6744C6.05251 31.3231 11.9228 35.1963 18.7083 35.1963Z" fill="#34A853"/>
<path fill-rule="evenodd" clip-rule="evenodd" d="M9.19629 21.5809C8.83303 20.5121 8.62663 19.3704 8.62663 18.1963C8.62663 17.0222 8.83303 15.8805 9.19629 14.8117V10.1963H3.12818C1.89804 12.6011 1.19629 15.3218 1.19629 18.1963C1.19629 21.0708 1.89804 23.7914 3.12818 26.1963L9.19629 21.5809Z" fill="#FBBC05"/>
<path fill-rule="evenodd" clip-rule="evenodd" d="M18.6361 8.07059C21.1727 8.07059 23.4502 8.94264 25.2408 10.6553L30.1963 5.69797C27.2041 2.90897 23.2931 1.19629 18.6361 1.19629C11.8822 1.19629 6.03922 5.06947 3.19629 10.7182L8.96854 15.1963C10.3272 11.111 14.1361 8.07059 18.6361 8.07059Z" fill="#EA4335"/>
</svg>
